<svg xmlns="http://www.w3.org/2000/svg" version="1.0" preserveAspectRatio="xMidYMid meet" viewBox="0 0 500 500">

    <g transform="translate(0.000000,500.000000) scale(0.100000,-0.100000)" fill="#fff" stroke="none">
        <path
            d="M0 2500 l0 -2500 2500 0 2500 0 0 2500 0 2500 -2500 0 -2500 0 0 -2500z m3952 323 c10 -9 18 -26 18 -39 0 -21 -35 -189 -46 -224 -9 -25 -20 5 -44 122 -22 101 -22 108 -6 132 19 30 51 34 78 9z m-2642 -8 c86 -45 75 -155 -19 -195 l-29 -12 39 -95 c21 -53 47 -102 56 -109 16 -12 9 -13 -47 -14 l-66 0 -33 101 c-29 89 -35 100 -54 97 -19 -3 -23 -14 -36 -87 -14 -79 -13 -84 4 -97 16 -12 8 -14 -68 -14 l-86 0 22 23 c19 18 29 55 56 207 31 175 32 185 15 197 -28 20 207 18 246 -2z m1068 -187 c27 -171 35 -206 53 -220 21 -17 18 -18 -67 -18 -80 0 -87 1 -68 15 19 12 20 20 13 62 -4 26 -8 54 -8 61 -1 8 -22 12 -71 12 l-70 0 -31 -61 c-16 -34 -29 -62 -27 -64 2 -1 12 -7 23 -13 16 -9 8 -11 -45 -11 -64 0 -65 0 -33 14 28 12 44 36 114 177 117 235 126 248 158 248 l27 0 32 -202z m-680 76 c15 -10 22 -25 22 -49 0 -51 -63 -98 -177 -131 -18 -5 -16 -35 3 -62 22 -32 83 -30 123 4 38 31 40 22 5 -23 -69 -90 -196 -81 -225 17 -26 85 33 210 115 246 42 18 107 17 134 -2z m319 -8 c24 -21 26 -26 15 -50 -19 -43 -58 -34 -86 21 -11 22 -21 30 -31 26 -29 -11 -67 -90 -72 -152 -5 -54 -3 -62 20 -85 33 -33 64 -33 112 -1 49 34 54 26 12 -18 -64 -69 -139 -77 -194 -22 -35 35 -35 36 -31 105 3 57 9 77 34 112 58 84 163 114 221 64z m638 -12 l-6 -36 39 31 c68 55 142 52 142 -6 l0 -24 38 31 c44 35 104 49 127 30 21 -18 18 -70 -10 -179 -13 -52 -21 -99 -19 -103 3 -5 17 -2 31 7 29 19 37 17 20 -5 -22 -29 -61 -50 -94 -50 -52 0 -56 22 -28 139 31 126 32 151 6 151 -11 0 -32 -10 -46 -23 -22 -18 -31 -43 -51 -137 -14 -63 -26 -115 -27 -116 -1 -1 -20 -4 -42 -6 -47 -4 -47 -12 -14 149 26 128 22 145 -28 120 -45 -24 -49 -33 -73 -153 l-22 -112 -41 -5 c-23 -3 -43 -4 -46 -2 -2 2 9 64 24 136 26 127 27 133 9 146 -22 16 -20 18 41 36 75 23 78 23 70 -19z m680 26 c3 -6 15 -5 30 2 14 6 28 8 31 5 4 -3 -7 -68 -25 -144 -17 -76 -31 -142 -31 -146 0 -13 27 -7 40 8 7 8 18 15 24 15 6 0 -6 -16 -26 -35 -56 -52 -118 -45 -118 13 0 24 -1 23 -40 -12 -90 -81 -172 -16 -136 108 18 62 93 152 148 179 37 18 94 22 103 7z m261 -37 c-3 -27 -12 -75 -20 -108 -8 -33 -19 -85 -26 -116 -11 -56 -12 -57 -48 -62 -20 -2 -40 -2 -44 2 -4 3 5 64 19 134 25 121 26 129 9 145 -16 16 -14 18 36 34 81 25 80 25 74 -29z m168 31 c21 -20 21 -27 -11 -160 -14 -63 -24 -116 -21 -120 4 -3 19 2 34 12 21 14 26 15 22 4 -8 -26 -70 -61 -102 -58 -50 5 -53 24 -23 153 15 63 25 120 22 125 -9 15 -33 12 -60 -6 -33 -22 -32 -7 2 20 61 49 108 59 137 30z m186 -222 c44 -36 20 -102 -36 -102 -52 0 -75 74 -32 104 29 20 41 20 68 -2z" />
        <path
            d="M1176 2793 c-3 -10 -10 -47 -16 -83 -6 -36 -13 -73 -16 -82 -4 -15 1 -18 26 -18 66 0 110 47 110 117 0 27 -17 64 -34 75 -21 15 -65 9 -70 -9z" />
        <path d="M2216 2650 l-47 -90 64 0 64 0 -13 86 c-7 47 -14 88 -16 90 -2 1 -25 -37 -52 -86z" />
        <path d="M1591 2679 c-36 -34 -78 -139 -56 -139 18 0 86 44 105 67 46 59 4 121 -49 72z" />
        <path
            d="M3215 2667 c-39 -39 -57 -97 -53 -170 3 -50 4 -52 34 -55 45 -4 64 24 89 138 21 96 21 101 4 110 -28 16 -39 12 -74 -23z" />
    </g>
</svg>