<svg xmlns="http://www.w3.org/2000/svg" version="1.1" xmlns:xlink="http://www.w3.org/1999/xlink"
        xmlns:svgjs="http://svgjs.dev/svgjs" width="1000" height="156" viewBox="0 0 1000 156">
        <g transform="matrix(1,0,0,1,-0.6060474456584757,-0.1257358265748536)"><svg viewBox="0 0 396 62"
                        data-background-color="#ffffff" preserveAspectRatio="xMidYMid meet" height="156" width="1000"
                        xmlns="http://www.w3.org/2000/svg" xmlns:xlink="http://www.w3.org/1999/xlink">
                        <g id="tight-bounds" transform="matrix(1,0,0,1,0.2399948563390808,0.049971931074622944)"><svg
                                        viewBox="0 0 395.52 61.900053966540746" height="61.900053966540746"
                                        width="395.52">
                                        <g><svg viewBox="0 0 395.52 61.900053966540746" height="61.900053966540746"
                                                        width="395.52">
                                                        <g><svg viewBox="0 0 395.52 61.900053966540746"
                                                                        height="61.900053966540746" width="395.52">
                                                                        <g id="textblocktransform"><svg
                                                                                        viewBox="0 0 395.52 61.900053966540746"
                                                                                        height="61.900053966540746"
                                                                                        width="395.52" id="textblock">
                                                                                        <g><svg viewBox="0 0 395.52 61.900053966540746"
                                                                                                        height="61.900053966540746"
                                                                                                        width="395.52">
                                                                                                        <g
                                                                                                                transform="matrix(1,0,0,1,0,0)">
                                                                                                                <svg width="395.52"
                                                                                                                        viewBox="2.200000047683716 -35.650001525878906 277.92999267578125 43.5"
                                                                                                                        height="61.900053966540746"
                                                                                                                        data-palette-color="#4a106d">
                                                                                                                        <path d="M13 0L2.2 0 2.2-35 18.8-35Q22.6-35 25.7-33.4 28.8-31.8 30.65-28.98 32.5-26.15 32.5-22.45L32.5-22.45Q32.5-19.4 31.03-16.73 29.55-14.05 27.1-12.3L27.1-12.3 29.05-9.25Q29.4-8.75 29.8-8.5 30.2-8.25 31-8.25L31-8.25 33.5-8.25 33.5 0 27.9 0Q25.25 0 23.18-1.15 21.1-2.3 20-4.15L20-4.15 16.65-9.8Q16.45-9.8 16.25-9.8 16.05-9.8 15.85-9.8L15.85-9.8 13-9.8 13 0ZM13-26.55L13-18.05 17.7-18.05Q18.7-18.05 19.6-18.57 20.5-19.1 21.05-20.08 21.6-21.05 21.6-22.35L21.6-22.35Q21.6-23.65 21.05-24.58 20.5-25.5 19.6-26.03 18.7-26.55 17.7-26.55L17.7-26.55 13-26.55ZM62.25 0L46.55 0Q43.55 0 41.07-1.3 38.6-2.6 37.15-4.88 35.7-7.15 35.7-10.15L35.7-10.15Q35.7-12.5 36.77-14.58 37.85-16.65 39.75-18.05L39.75-18.05Q38.1-19.35 37.1-21.23 36.1-23.1 36.1-25.1L36.1-25.1Q36.1-28.05 37.52-30.28 38.95-32.5 41.37-33.75 43.8-35 46.7-35L46.7-35 62.25-35 62.25-26.5 49.1-26.55Q48.3-26.55 47.65-26.28 47-26 46.62-25.48 46.25-24.95 46.25-24.15L46.25-24.15Q46.25-23.4 46.62-22.88 47-22.35 47.65-22.08 48.3-21.8 49.1-21.8L49.1-21.8 60.5-21.8 60.5-13.4 49.15-13.4Q48.3-13.4 47.65-13.1 47-12.8 46.62-12.25 46.25-11.7 46.25-10.9L46.25-10.9Q46.25-10.15 46.62-9.6 47-9.05 47.65-8.78 48.3-8.5 49.15-8.5L49.15-8.5 62.25-8.5 62.25 0ZM90.55 0L85.25 0Q80.55 0 76.84-1.28 73.14-2.55 70.59-4.88 68.05-7.2 66.7-10.4 65.34-13.6 65.34-17.5L65.34-17.5Q65.34-21.4 66.7-24.6 68.05-27.8 70.62-30.13 73.2-32.45 76.87-33.73 80.55-35 85.25-35L85.25-35 90.55-35 90.55-26.55 85.59-26.55Q83.3-26.55 81.55-25.85 79.8-25.15 78.65-23.93 77.5-22.7 76.92-21.05 76.34-19.4 76.34-17.5L76.34-17.5Q76.34-15.6 76.92-13.95 77.5-12.3 78.65-11.08 79.8-9.85 81.55-9.15 83.3-8.45 85.59-8.45L85.59-8.45 90.55-8.45 90.55 0ZM102.84 0L91.64 0 102.84-30.6Q103.79-33.1 105.97-34.38 108.14-35.65 110.89-35.65L110.89-35.65Q113.64-35.65 115.82-34.4 117.99-33.15 118.94-30.65L118.94-30.65 130.14 0 118.69 0 116.79-6.1 104.84-6.1 102.84 0ZM110.54-25.6L107.09-14.35 114.54-14.35 111.29-25.6Q111.24-25.75 111.14-25.83 111.04-25.9 110.89-25.9L110.89-25.9Q110.79-25.9 110.69-25.83 110.59-25.75 110.54-25.6L110.54-25.6ZM158.24 0.65L158.24 0.65Q155.04 0.65 152.22-0.65 149.39-1.95 147.64-4.5 145.89-7.05 145.89-10.75L145.89-10.75 145.89-24.3Q145.89-24.95 145.62-25.43 145.34-25.9 144.89-26.15 144.44-26.4 143.84-26.4L143.84-26.4Q143.24-26.4 142.77-26.15 142.29-25.9 142.02-25.43 141.74-24.95 141.74-24.3L141.74-24.3 141.74 0 131.44 0 131.44-24.2Q131.44-27.85 133.17-30.4 134.89-32.95 137.74-34.3 140.59-35.65 143.84-35.65L143.84-35.65Q147.09-35.65 149.89-34.3 152.69-32.95 154.44-30.4 156.19-27.85 156.19-24.2L156.19-24.2 156.19-10.65Q156.19-10 156.49-9.53 156.79-9.05 157.24-8.8 157.69-8.55 158.19-8.55L158.19-8.55Q158.74-8.55 159.24-8.8 159.74-9.05 160.04-9.53 160.34-10 160.34-10.65L160.34-10.65 160.34-24.2Q160.34-27.85 162.09-30.4 163.84-32.95 166.67-34.3 169.49-35.65 172.69-35.65L172.69-35.65Q175.89-35.65 178.69-34.3 181.49-32.95 183.24-30.4 184.99-27.85 184.99-24.2L184.99-24.2 184.99 0 174.74 0 174.74-24.45Q174.74-25.05 174.44-25.48 174.14-25.9 173.69-26.15 173.24-26.4 172.69-26.4L172.69-26.4Q172.14-26.4 171.64-26.15 171.14-25.9 170.87-25.48 170.59-25.05 170.59-24.45L170.59-24.45 170.59-10.75Q170.59-7.05 168.82-4.5 167.04-1.95 164.24-0.65 161.44 0.65 158.24 0.65ZM198.24 0L187.04 0 198.24-30.6Q199.19-33.1 201.36-34.38 203.54-35.65 206.29-35.65L206.29-35.65Q209.04-35.65 211.21-34.4 213.39-33.15 214.34-30.65L214.34-30.65 225.54 0 214.09 0 212.19-6.1 200.24-6.1 198.24 0ZM205.94-25.6L202.49-14.35 209.94-14.35 206.69-25.6Q206.64-25.75 206.54-25.83 206.44-25.9 206.29-25.9L206.29-25.9Q206.19-25.9 206.09-25.83 205.99-25.75 205.94-25.6L205.94-25.6ZM253.64 0.65L253.64 0.65Q250.44 0.65 247.61-0.68 244.79-2 243.04-4.55 241.29-7.1 241.29-10.75L241.29-10.75 241.29-24.3Q241.29-24.95 241.01-25.43 240.74-25.9 240.29-26.15 239.84-26.4 239.24-26.4L239.24-26.4Q238.64-26.4 238.16-26.15 237.69-25.9 237.41-25.43 237.14-24.95 237.14-24.3L237.14-24.3 237.14 0 226.84 0 226.84-24.2Q226.84-27.85 228.56-30.4 230.29-32.95 233.14-34.3 235.99-35.65 239.24-35.65L239.24-35.65Q242.49-35.65 245.29-34.3 248.09-32.95 249.84-30.4 251.59-27.85 251.59-24.2L251.59-24.2 251.59-10.65Q251.59-10 251.89-9.5 252.19-9 252.64-8.75 253.09-8.5 253.59-8.5L253.59-8.5Q254.14-8.5 254.64-8.75 255.14-9 255.44-9.5 255.74-10 255.74-10.65L255.74-10.65 255.74-35 265.99-35 265.99-10.75Q265.99-7.1 264.24-4.55 262.49-2 259.66-0.68 256.84 0.65 253.64 0.65ZM274.88-16.15L274.88-16.15Q272.73-16.15 271.23-17.68 269.73-19.2 269.73-21.3L269.73-21.3Q269.73-23.45 271.23-25 272.73-26.55 274.88-26.55L274.88-26.55Q277.03-26.55 278.56-25 280.08-23.45 280.08-21.3L280.08-21.3Q280.08-19.2 278.56-17.68 277.03-16.15 274.88-16.15ZM276.43 7.85L269.98 7.85 272.73 0.15Q271.38-0.5 270.56-1.75 269.73-3 269.73-4.4L269.73-4.4Q269.73-6.75 271.26-8.25 272.78-9.75 274.83-9.75L274.83-9.75Q277.18-9.75 278.66-8.15 280.13-6.55 280.13-4.3L280.13-4.3Q280.13-2.95 279.81-1.65 279.48-0.35 278.88 1.2L278.88 1.2 276.43 7.85Z"
                                                                                                                                opacity="1"
                                                                                                                                transform="matrix(1,0,0,1,0,0)"
                                                                                                                                fill="#4a106d"
                                                                                                                                class="undefined-text-0"
                                                                                                                                data-fill-palette-color="primary"
                                                                                                                                id="text-0">
                                                                                                                        </path>
                                                                                                                </svg>
                                                                                                        </g>
                                                                                                </svg></g>
                                                                                </svg></g>
                                                                </svg></g>
                                                </svg></g>
                                        <defs></defs>
                                </svg>
                                <rect width="395.52" height="61.900053966540746" fill="none" stroke="none"
                                        visibility="hidden"></rect>
                        </g>
                </svg></g>
</svg>